<svg xmlns="http://www.w3.org/2000/svg" viewBox="0 0 731.87 782.7"><defs><style>.cls-1{fill:#414042;}.cls-2{fill:#27aae1;}.cls-3{fill:#2589d6;}</style></defs><title>logo</title><g id="Layer_2" data-name="Layer 2"><g id="Layer_1-2" data-name="Layer 1"><path class="cls-1" d="M614.84,180.26C606,168.7,591.08,164,576.91,167.42a55,55,0,0,1-25.85,0c-14.17-3.45-29,1.28-37.93,12.84L403.55,323a36.1,36.1,0,0,0-7.45,22v401.7a36,36,0,0,0,36,36.05H695.82a36,36,0,0,0,36-36.05V345a36.1,36.1,0,0,0-7.45-22Z"/><path class="cls-1" d="M564,0A114,114,0,1,0,678,114,114,114,0,0,0,564,0Zm0,168.23A54.21,54.21,0,1,1,618.19,114,54.21,54.21,0,0,1,564,168.23Z"/><path class="cls-1" d="M483,134.06,308.24,177.27a36.14,36.14,0,0,0-19.53,12.51L7.88,541.65a36,36,0,0,0,5.69,50.67L219.64,756.8a36.06,36.06,0,0,0,50.67-5.69L551.15,399.24A36.06,36.06,0,0,0,559,377.43l3.38-179.29c.27-14.41-7.65-28.1-20.8-34a55,55,0,0,1-21.1-16.66A36.37,36.37,0,0,0,483,134.06Z"/><path class="cls-2" d="M614.84,180.26C606,168.7,591.08,164,576.91,167.42a55,55,0,0,1-25.85,0c-14.17-3.45-29,1.28-37.93,12.84L403.55,323a36.1,36.1,0,0,0-7.45,22v401.7a36,36,0,0,0,36,36.05H695.82a36,36,0,0,0,36-36.05V345a36.1,36.1,0,0,0-7.45-22Z"/><path class="cls-3" d="M564,0A114,114,0,1,0,678,114,114,114,0,0,0,564,0Zm0,168.23A54.21,54.21,0,1,1,618.19,114,54.21,54.21,0,0,1,564,168.23Z"/><path class="cls-3" d="M483,134.06,308.24,177.27a36.14,36.14,0,0,0-19.53,12.51L7.88,541.65a36,36,0,0,0,5.69,50.67L219.64,756.8a36.06,36.06,0,0,0,50.67-5.69L551.15,399.24A36.06,36.06,0,0,0,559,377.43l3.38-179.29c.27-14.41-7.65-28.1-20.8-34a55,55,0,0,1-21.1-16.66A36.37,36.37,0,0,0,483,134.06Z"/></g></g></svg>