<svg xmlns="http://www.w3.org/2000/svg" viewBox="0 0 3742.6 782.7"><defs><style>.cls-1{fill:#414042;}.cls-2{fill:#27aae1;}.cls-3{fill:#2589d6;}</style></defs><title>logo_wide</title><g id="Layer_2" data-name="Layer 2"><g id="Layer_1-2" data-name="Layer 1"><path class="cls-1" d="M614.84,180.26C606,168.7,591.08,164,576.91,167.42a55,55,0,0,1-25.85,0c-14.17-3.45-29,1.28-37.93,12.84L403.55,323a36.1,36.1,0,0,0-7.45,22v401.7a36,36,0,0,0,36,36.05H695.82a36,36,0,0,0,36-36.05V345a36.1,36.1,0,0,0-7.45-22Z"/><path class="cls-1" d="M564,0A114,114,0,1,0,678,114,114,114,0,0,0,564,0Zm0,168.23A54.21,54.21,0,1,1,618.19,114,54.21,54.21,0,0,1,564,168.23Z"/><path class="cls-1" d="M483,134.06,308.24,177.27a36.14,36.14,0,0,0-19.53,12.51L7.88,541.65a36,36,0,0,0,5.69,50.67L219.64,756.8a36.06,36.06,0,0,0,50.67-5.69L551.15,399.24A36.06,36.06,0,0,0,559,377.43l3.38-179.29c.27-14.41-7.65-28.1-20.8-34a55,55,0,0,1-21.1-16.66A36.37,36.37,0,0,0,483,134.06Z"/><path class="cls-2" d="M614.84,180.26C606,168.7,591.08,164,576.91,167.42a55,55,0,0,1-25.85,0c-14.17-3.45-29,1.28-37.93,12.84L403.55,323a36.1,36.1,0,0,0-7.45,22v401.7a36,36,0,0,0,36,36.05H695.82a36,36,0,0,0,36-36.05V345a36.1,36.1,0,0,0-7.45-22Z"/><path class="cls-3" d="M564,0A114,114,0,1,0,678,114,114,114,0,0,0,564,0Zm0,168.23A54.21,54.21,0,1,1,618.19,114,54.21,54.21,0,0,1,564,168.23Z"/><path class="cls-3" d="M483,134.06,308.24,177.27a36.14,36.14,0,0,0-19.53,12.51L7.88,541.65a36,36,0,0,0,5.69,50.67L219.64,756.8a36.06,36.06,0,0,0,50.67-5.69L551.15,399.24A36.06,36.06,0,0,0,559,377.43l3.38-179.29c.27-14.41-7.65-28.1-20.8-34a55,55,0,0,1-21.1-16.66A36.37,36.37,0,0,0,483,134.06Z"/><path class="cls-1" d="M1484.89,554.88q0,68.36-41.25,117.46Q1400,723.81,1332.86,723.8q-25.14,0-75.62-1.18t-75.63-1.18q-18.46,0-55.58,1.57t-55.59,1.58q-9.82,0-9.82-9,0-43.21,4.12-129.84t4.13-129.83q0-45.57-4.13-136.91t-4.12-136.91q0-8.64,9.82-8.64,35,0,105.28.39t105.68.39q82.5,0,131.6,30.65,59.71,37.32,59.72,115.89,0,27.11-15.72,56.37t-38.1,44.2q-11.4,7.45-11.4,9.82t11.4,8.64q29.85,16.5,47.92,48.52T1484.89,554.88ZM1374.5,329.38q0-55.39-49.49-74.64-29.87-11.38-97.82-11.4-66,0-66,9.83,0,13-1.18,38.89t-1.18,39.28q0,9,.39,27.9t.4,28.28q0,11.4,88.78,11.39Q1374.51,398.91,1374.5,329.38ZM1385.11,551q0-47.93-42.82-64.82-27.11-11-84.46-11-99,0-99,10.6v64.43q0,14.15.79,43.21t.78,43.61q0,3.93,25.14,5.89t74.65,2q62.05,0,89.17-16.11Q1385.11,607.52,1385.11,551Z"/><path class="cls-1" d="M1653.43,254.74q0,48.31-53.82,48.32-54.61,0-54.61-48.32,0-21.6,16.89-35.75,15.7-13.35,37.72-13.36t37.91,13.75Q1653.42,233.14,1653.43,254.74Zm-2.75,106.46q0,30.26-3.74,91.34t-3.73,91.73q0,28.68,1.18,85.84t1.18,85.44q0,8.25-7.07,8.25h-76.61q-8.25,0-8.25-16.11,0-27.11,1.38-81.51t1.37-81.91q0-30.64-4.51-91.93t-4.52-91.93q0-6.68,8.25-6.67a182.68,182.68,0,0,1,21.8,2,126.65,126.65,0,0,0,44.39,0,183.27,183.27,0,0,1,22.2-2Q1650.68,353.74,1650.68,361.2Z"/><path class="cls-1" d="M2106,176.56q0,50.69-4.52,151.84T2097,479.84q0,155.18,6.68,234.92l.39,5.11q.39,3.93-10.6,5.11a141.36,141.36,0,0,1-21.22,0q-16.5-1.18-15.32-1.18-5.9,0-17.28,1.18t-17.29,1.18q-5.5,0-6.48-27.31t-2.95-27.69a22.83,22.83,0,0,0-5.89,5.1q-53.84,58.15-123.75,58.15-79.35,0-130.42-60.5-48.33-57-48.32-137.5,0-83.67,48.71-140.64,51.06-59.72,133.18-59.71,49.48,0,86.42,29.07,16.89,14.53,33.39,29.46,3.15-1.17,3.15-5.5V261.81q0-13-1.18-39.29T2007,182.85q0-9.43,6.29-9.43,14.52,0,43.21-2.55t42.82-2.56Q2106,168.31,2106,176.56Zm-98.21,357.49q0-47.13-29.08-82.89-31-38.1-77-38.1-48.33,0-79.75,37.71-29.87,35.36-29.86,84.85,0,47.14,31,82.11,31.81,36.93,78.57,36.93,47.13,0,77.78-37.32Q2007.78,582.38,2007.78,534.05Z"/><path class="cls-1" d="M3144.68,355.7q0,43.21-5.9,78.57-1.17,9-7.85,9-8.25,0-24.95-1.77t-25.34-1.77q-49.5,0-63.24,27.89-8.25,16.9-8.25,70.32V581.2q0,22,1.77,66.78t1.76,66.78q0,10.61-9,10.61-12.18,0-36.92-.39t-36.93-.39q-9,0-9-9.83,0-31.82,1-95.85t1-96.25q0-97-18.07-156a21.18,21.18,0,0,1-.79-4.71c0-3.15,1.7-5.37,5.11-6.68q14.54-1.56,40.86-4.72,42.42-7.84,39.28-7.85,6.29,0,8.25,23.18t7.07,23.17a3.84,3.84,0,0,0,2-.78l32.21-20.43a145.33,145.33,0,0,1,36.14-15.71q15.33-4.73,39.29-4.72Q3144.68,347.45,3144.68,355.7Z"/><path class="cls-1" d="M3290,254.74q0,48.31-53.83,48.32-54.6,0-54.6-48.32,0-21.6,16.89-35.75,15.72-13.35,37.71-13.36t37.92,13.75Q3290,233.14,3290,254.74Zm-2.75,106.46q0,30.26-3.74,91.34t-3.73,91.73q0,28.68,1.18,85.84t1.18,85.44q0,8.25-7.07,8.25H3198.5q-8.25,0-8.25-16.11,0-27.11,1.38-81.51t1.37-81.91q0-30.64-4.52-91.93T3184,360.41q0-6.68,8.25-6.67a182.68,182.68,0,0,1,21.8,2,126.65,126.65,0,0,0,44.39,0,183.27,183.27,0,0,1,22.2-2Q3287.29,353.74,3287.29,361.2Z"/><path class="cls-1" d="M3742.6,176.56q0,50.69-4.52,151.84t-4.52,151.44q0,155.18,6.68,234.92l.39,5.11q.39,3.93-10.6,5.11a141.38,141.38,0,0,1-21.22,0q-16.5-1.18-15.32-1.18-5.89,0-17.29,1.18t-17.28,1.18q-5.51,0-6.48-27.31t-3-27.69a22.67,22.67,0,0,0-5.89,5.1q-53.83,58.15-123.75,58.15-79.35,0-130.43-60.5-48.32-57-48.31-137.5,0-83.67,48.71-140.64,51.06-59.72,133.17-59.71,49.5,0,86.43,29.07,16.89,14.53,33.39,29.46c2.1-.78,3.14-2.61,3.14-5.5V261.81q0-13-1.17-39.29t-1.18-39.67q0-9.43,6.28-9.43,14.53,0,43.21-2.55t42.83-2.56Q3742.6,168.31,3742.6,176.56Zm-98.22,357.49q0-47.13-29.07-82.89-31-38.1-77-38.1-48.32,0-79.74,37.71-29.87,35.36-29.86,84.85,0,47.14,31,82.11,31.82,36.93,78.56,36.93,47.14,0,77.79-37.32Q3644.38,582.38,3644.38,534.05Z"/><path class="cls-1" d="M2858.69,705.34l-.4-5.51q-7.45-96.63-7.46-153.2,0-13.75,1-41.45t1-41.45q0-12.57-8.26-12.57-7.45,0-22.78.79t-22.79.78q-7.45,0-22.39-1t-22.39-1c-1,0-37.78-1.77-48.17-1.77q-30.64,0-30.64,8.25,0,43.22,5.89,78.57,1.18,9,7.86,9,8.25,0,24.95-1.77c7.7-.82,32-1.33,37.08-1.58q5.06,55,5.78,64.83-60.11,39.28-132,39.28-73.07,0-121.39-62.46-44.39-57.75-44.39-132.78,0-77,43.21-133.57,47.53-62.07,121.79-62.07,38.88,0,74.64,24,22.78,15.33,47.93,44.39,20.8,24,24,24,4.32,0,32.41-30.84t28.09-36.34q0-3.92-5.11-11.39-33.39-49.5-89.37-78T2620.23,162q-117.86,0-191.32,86.42-69.54,81.72-69.53,201.93,0,117.47,70.71,199.17Q2504.72,736,2620.23,736q99,0,171.28-49.11,6.27,4.71,28.88,15.91t28.48,11.2Q2859.48,714,2858.69,705.34Z"/></g></g></svg>